<mxfile host="app.diagrams.net" modified="2024-07-08T14:59:30.011Z" agent="Mozilla/5.0 (Windows NT 10.0; Win64; x64) AppleWebKit/537.36 (KHTML, like Gecko) Chrome/124.0.0.0 YaBrowser/24.6.0.0 Safari/537.36" etag="TKOnC3BXPDfsmYdzuIZu" version="24.6.4" type="device">
  <diagram name="Page-1" id="efa7a0a1-bf9b-a30e-e6df-94a7791c09e9">
    <mxGraphModel dx="227" dy="129" grid="1" gridSize="10" guides="1" tooltips="1" connect="1" arrows="1" fold="1" page="1" pageScale="1" pageWidth="826" pageHeight="1169" background="none" math="0" shadow="0">
      <root>
        <mxCell id="0" />
        <mxCell id="1" parent="0" />
        <mxCell id="19" value="&lt;p style=&quot;margin: 0px; margin-top: 4px; text-align: center; text-decoration: underline;&quot;&gt;&lt;b&gt;Pack Animals&lt;/b&gt;&lt;/p&gt;&lt;hr&gt;&lt;p style=&quot;border-color: var(--border-color); margin: 0px 0px 0px 8px;&quot;&gt;&lt;br&gt;&lt;/p&gt;" style="verticalAlign=top;align=left;overflow=fill;fontSize=12;fontFamily=Helvetica;html=1;strokeColor=#003366;shadow=1;fillColor=#D4E1F5;fontColor=#003366" parent="1" vertex="1">
          <mxGeometry x="570" y="110" width="180" height="96.72" as="geometry" />
        </mxCell>
        <mxCell id="28" value="&lt;p style=&quot;margin: 0px; margin-top: 4px; text-align: center; text-decoration: underline;&quot;&gt;&lt;strong&gt;Document&lt;/strong&gt;&lt;/p&gt;&lt;hr /&gt;&lt;p style=&quot;margin: 0px; margin-left: 8px;&quot;&gt;IdDocument&lt;/p&gt;&lt;p style=&quot;margin: 0px; margin-left: 8px;&quot;&gt;Name&lt;/p&gt;&lt;p style=&quot;margin: 0px; margin-left: 8px;&quot;&gt;Description&lt;/p&gt;&lt;p style=&quot;margin: 0px; margin-left: 8px;&quot;&gt;ValidFrom&lt;/p&gt;&lt;p style=&quot;margin: 0px; margin-left: 8px;&quot;&gt;ValidUntil&lt;/p&gt;&lt;p style=&quot;margin: 0px; margin-left: 8px;&quot;&gt;DocumentContents&lt;/p&gt;&lt;p style=&quot;margin: 0px; margin-left: 8px;&quot;&gt;CreatedAt&lt;/p&gt;&lt;p style=&quot;margin: 0px; margin-left: 8px;&quot;&gt;UpdateAt&lt;/p&gt;&lt;p style=&quot;margin: 0px; margin-left: 8px;&quot;&gt;Enabled&lt;/p&gt;" style="verticalAlign=top;align=left;overflow=fill;fontSize=12;fontFamily=Helvetica;html=1;strokeColor=#003366;shadow=1;fillColor=#D4E1F5;fontColor=#003366" parent="1" vertex="1">
          <mxGeometry x="129.9999999999999" y="881.1600000000003" width="160" height="180" as="geometry" />
        </mxCell>
        <mxCell id="QkfnJcTWelkUbTLPT4NS-114" value="&lt;p style=&quot;margin: 0px; margin-top: 4px; text-align: center; text-decoration: underline;&quot;&gt;&lt;b&gt;Animals&lt;/b&gt;&lt;/p&gt;&lt;hr&gt;&lt;p style=&quot;border-color: var(--border-color); margin: 0px 0px 0px 8px;&quot;&gt;&lt;b style=&quot;border-color: var(--border-color);&quot;&gt;Id&lt;/b&gt;&amp;nbsp;Primary Key auto_increment,&lt;/p&gt;&lt;p style=&quot;border-color: var(--border-color); margin: 0px 0px 0px 8px;&quot;&gt;&lt;b style=&quot;border-color: var(--border-color);&quot;&gt;Name&lt;/b&gt;&amp;nbsp;VARCHAR(45),&lt;br style=&quot;border-color: var(--border-color);&quot;&gt;&lt;/p&gt;&lt;p style=&quot;border-color: var(--border-color); margin: 0px 0px 0px 8px;&quot;&gt;&lt;b&gt;id_group&lt;/b&gt;, int&lt;/p&gt;&lt;p style=&quot;border-color: var(--border-color); margin: 0px 0px 0px 8px;&quot;&gt;&lt;b style=&quot;border-color: var(--border-color);&quot;&gt;id_Commands&lt;/b&gt;&amp;nbsp;int,&lt;/p&gt;&lt;p style=&quot;border-color: var(--border-color); margin: 0px 0px 0px 8px;&quot;&gt;&lt;b style=&quot;border-color: var(--border-color);&quot;&gt;Birthday&lt;/b&gt;&amp;nbsp;date&lt;/p&gt;" style="verticalAlign=top;align=left;overflow=fill;fontSize=12;fontFamily=Helvetica;html=1;strokeColor=#003366;shadow=1;fillColor=#D4E1F5;fontColor=#003366" parent="1" vertex="1">
          <mxGeometry x="310" y="110" width="190" height="118.36" as="geometry" />
        </mxCell>
        <mxCell id="QkfnJcTWelkUbTLPT4NS-129" value="&lt;p style=&quot;margin: 0px; margin-top: 4px; text-align: center; text-decoration: underline;&quot;&gt;&lt;b&gt;Commands&lt;/b&gt;&lt;/p&gt;&lt;hr&gt;&lt;p style=&quot;border-color: var(--border-color); margin: 0px 0px 0px 8px;&quot;&gt;&lt;b style=&quot;border-color: var(--border-color);&quot;&gt;Id&lt;/b&gt;&amp;nbsp;Primary Key auto_increment,&lt;/p&gt;&lt;p style=&quot;border-color: var(--border-color); margin: 0px 0px 0px 8px;&quot;&gt;&lt;b style=&quot;border-color: var(--border-color);&quot;&gt;Name&lt;/b&gt;&lt;span style=&quot;border-color: var(--border-color);&quot;&gt;_&lt;/span&gt;&lt;b style=&quot;background-color: initial; border-color: var(--border-color);&quot;&gt;Commands&lt;/b&gt;&lt;span style=&quot;background-color: initial;&quot;&gt;&amp;nbsp;VARCHAR(45)&lt;/span&gt;&lt;/p&gt;" style="verticalAlign=top;align=left;overflow=fill;fontSize=12;fontFamily=Helvetica;html=1;strokeColor=#003366;shadow=1;fillColor=#D4E1F5;fontColor=#003366" parent="1" vertex="1">
          <mxGeometry x="305" y="270" width="200" height="70" as="geometry" />
        </mxCell>
        <mxCell id="QkfnJcTWelkUbTLPT4NS-130" value="" style="endArrow=classic;html=1;rounded=0;entryX=-0.003;entryY=0.571;entryDx=0;entryDy=0;entryPerimeter=0;exitX=-0.001;exitY=0.723;exitDx=0;exitDy=0;exitPerimeter=0;" parent="1" source="QkfnJcTWelkUbTLPT4NS-114" target="QkfnJcTWelkUbTLPT4NS-129" edge="1">
          <mxGeometry width="50" height="50" relative="1" as="geometry">
            <mxPoint x="300" y="175.07999999999998" as="sourcePoint" />
            <mxPoint x="270" y="255.07999999999998" as="targetPoint" />
            <Array as="points">
              <mxPoint x="270" y="195.07999999999998" />
              <mxPoint x="270" y="310" />
            </Array>
          </mxGeometry>
        </mxCell>
        <mxCell id="33zuU1U3aMws3OUiL9Bi-32" value="&lt;p style=&quot;margin: 0px; margin-top: 4px; text-align: center; text-decoration: underline;&quot;&gt;&lt;b&gt;Pets&lt;/b&gt;&lt;span style=&quot;color: rgba(0, 0, 0, 0); font-family: monospace; font-size: 0px; background-color: initial; text-align: left;&quot;&gt;%3CmxGraphModel%3E%3Croot%3E%3CmxCell%20id%3D%220%22%2F%3E%3CmxCell%20id%3D%221%22%20parent%3D%220%22%2F%3E%3CmxCell%20id%3D%222%22%20value%3D%22%26lt%3Bp%20style%3D%26quot%3Bmargin%3A%200px%3B%20margin-top%3A%204px%3B%20text-align%3A%20center%3B%20text-decoration%3A%20underline%3B%26quot%3B%26gt%3B%26lt%3Bb%26gt%3BPack%20Animals%26lt%3B%2Fb%26gt%3B%26lt%3B%2Fp%26gt%3B%26lt%3Bhr%26gt%3B%26lt%3Bp%20style%3D%26quot%3Bborder-color%3A%20var(--border-color)%3B%20margin%3A%200px%200px%200px%208px%3B%26quot%3B%26gt%3B%26lt%3Bb%20style%3D%26quot%3Bborder-color%3A%20var(--border-color)%3B%26quot%3B%26gt%3BId%26lt%3B%2Fb%26gt%3B%26amp%3Bnbsp%3BPrimary%20Key%20auto_increment%2C%26lt%3B%2Fp%26gt%3B%26lt%3Bp%20style%3D%26quot%3Bborder-color%3A%20var(--border-color)%3B%20margin%3A%200px%200px%200px%208px%3B%26quot%3B%26gt%3B%26lt%3Bb%20style%3D%26quot%3Bborder-color%3A%20var(--border-color)%3B%26quot%3B%26gt%3BName%26lt%3B%2Fb%26gt%3B%26amp%3Bnbsp%3BVARCHAR(45)%2C%26lt%3Bbr%20style%3D%26quot%3Bborder-color%3A%20var(--border-color)%3B%26quot%3B%26gt%3B%26lt%3B%2Fp%26gt%3B%26lt%3Bp%20style%3D%26quot%3Bborder-color%3A%20var(--border-color)%3B%20margin%3A%200px%200px%200px%208px%3B%26quot%3B%26gt%3B%26lt%3Bb%20style%3D%26quot%3Bborder-color%3A%20var(--border-color)%3B%26quot%3B%26gt%3BCommands%26lt%3B%2Fb%26gt%3B%26amp%3Bnbsp%3BVARCHAR(45)%2C%26lt%3B%2Fp%26gt%3B%26lt%3Bp%20style%3D%26quot%3Bborder-color%3A%20var(--border-color)%3B%20margin%3A%200px%200px%200px%208px%3B%26quot%3B%26gt%3B%26lt%3Bb%20style%3D%26quot%3Bborder-color%3A%20var(--border-color)%3B%26quot%3B%26gt%3BBirthday%26lt%3B%2Fb%26gt%3B%26amp%3Bnbsp%3Bdate%26lt%3B%2Fp%26gt%3B%22%20style%3D%22verticalAlign%3Dtop%3Balign%3Dleft%3Boverflow%3Dfill%3BfontSize%3D12%3BfontFamily%3DHelvetica%3Bhtml%3D1%3BstrokeColor%3D%23003366%3Bshadow%3D1%3BfillColor%3D%23D4E1F5%3BfontColor%3D%23003366%22%20vertex%3D%221%22%20parent%3D%221%22%3E%3CmxGeometry%20x%3D%22530%22%20y%3D%22110%22%20width%3D%22180%22%20height%3D%2296.72%22%20as%3D%22geometry%22%2F%3E%3C%2FmxCell%3E%3C%2Froot%3E%3C%2FmxGraphModel%3E&lt;/span&gt;&lt;span style=&quot;color: rgba(0, 0, 0, 0); font-family: monospace; font-size: 0px; background-color: initial; text-align: left;&quot;&gt;%3CmxGraphModel%3E%3Croot%3E%3CmxCell%20id%3D%220%22%2F%3E%3CmxCell%20id%3D%221%22%20parent%3D%220%22%2F%3E%3CmxCell%20id%3D%222%22%20value%3D%22%26lt%3Bp%20style%3D%26quot%3Bmargin%3A%200px%3B%20margin-top%3A%204px%3B%20text-align%3A%20center%3B%20text-decoration%3A%20underline%3B%26quot%3B%26gt%3B%26lt%3Bb%26gt%3BPack%20Animals%26lt%3B%2Fb%26gt%3B%26lt%3B%2Fp%26gt%3B%26lt%3Bhr%26gt%3B%26lt%3Bp%20style%3D%26quot%3Bborder-color%3A%20var(--border-color)%3B%20margin%3A%200px%200px%200px%208px%3B%26quot%3B%26gt%3B%26lt%3Bb%20style%3D%26quot%3Bborder-color%3A%20var(--border-color)%3B%26quot%3B%26gt%3BId%26lt%3B%2Fb%26gt%3B%26amp%3Bnbsp%3BPrimary%20Key%20auto_increment%2C%26lt%3B%2Fp%26gt%3B%26lt%3Bp%20style%3D%26quot%3Bborder-color%3A%20var(--border-color)%3B%20margin%3A%200px%200px%200px%208px%3B%26quot%3B%26gt%3B%26lt%3Bb%20style%3D%26quot%3Bborder-color%3A%20var(--border-color)%3B%26quot%3B%26gt%3BName%26lt%3B%2Fb%26gt%3B%26amp%3Bnbsp%3BVARCHAR(45)%2C%26lt%3Bbr%20style%3D%26quot%3Bborder-color%3A%20var(--border-color)%3B%26quot%3B%26gt%3B%26lt%3B%2Fp%26gt%3B%26lt%3Bp%20style%3D%26quot%3Bborder-color%3A%20var(--border-color)%3B%20margin%3A%200px%200px%200px%208px%3B%26quot%3B%26gt%3B%26lt%3Bb%20style%3D%26quot%3Bborder-color%3A%20var(--border-color)%3B%26quot%3B%26gt%3BCommands%26lt%3B%2Fb%26gt%3B%26amp%3Bnbsp%3BVARCHAR(45)%2C%26lt%3B%2Fp%26gt%3B%26lt%3Bp%20style%3D%26quot%3Bborder-color%3A%20var(--border-color)%3B%20margin%3A%200px%200px%200px%208px%3B%26quot%3B%26gt%3B%26lt%3Bb%20style%3D%26quot%3Bborder-color%3A%20var(--border-color)%3B%26quot%3B%26gt%3BBirthday%26lt%3B%2Fb%26gt%3B%26amp%3Bnbsp%3Bdate%26lt%3B%2Fp%26gt%3B%22%20style%3D%22verticalAlign%3Dtop%3Balign%3Dleft%3Boverflow%3Dfill%3BfontSize%3D12%3BfontFamily%3DHelvetica%3Bhtml%3D1%3BstrokeColor%3D%23003366%3Bshadow%3D1%3BfillColor%3D%23D4E1F5%3BfontColor%3D%23003366%22%20vertex%3D%221%22%20parent%3D%221%22%3E%3CmxGeometry%20x%3D%22530%22%20y%3D%22110%22%20width%3D%22180%22%20height%3D%2296.72%22%20as%3D%22geometry%22%2F%3E%3C%2FmxCell%3E%3C%2Froot%3E%3C%2FmxGraphModel%3E&lt;/span&gt;&lt;/p&gt;&lt;hr&gt;&lt;p style=&quot;border-color: var(--border-color); margin: 0px 0px 0px 8px;&quot;&gt;&lt;br&gt;&lt;/p&gt;" style="verticalAlign=top;align=left;overflow=fill;fontSize=12;fontFamily=Helvetica;html=1;strokeColor=#003366;shadow=1;fillColor=#D4E1F5;fontColor=#003366" vertex="1" parent="1">
          <mxGeometry x="60" y="110" width="180" height="96.72" as="geometry" />
        </mxCell>
        <mxCell id="33zuU1U3aMws3OUiL9Bi-33" value="&lt;p style=&quot;margin: 0px; margin-top: 4px; text-align: center; text-decoration: underline;&quot;&gt;&lt;b&gt;Dogs&lt;/b&gt;&lt;/p&gt;&lt;hr&gt;&lt;p style=&quot;border-color: var(--border-color); margin: 0px 0px 0px 8px;&quot;&gt;&lt;br&gt;&lt;/p&gt;" style="verticalAlign=top;align=left;overflow=fill;fontSize=12;fontFamily=Helvetica;html=1;strokeColor=#003366;shadow=1;fillColor=#D4E1F5;fontColor=#003366" vertex="1" parent="1">
          <mxGeometry x="60" y="280" width="180" height="96.72" as="geometry" />
        </mxCell>
        <mxCell id="33zuU1U3aMws3OUiL9Bi-34" value="&lt;p style=&quot;margin: 0px; margin-top: 4px; text-align: center; text-decoration: underline;&quot;&gt;&lt;b&gt;Cats&lt;/b&gt;&lt;/p&gt;" style="verticalAlign=top;align=left;overflow=fill;fontSize=12;fontFamily=Helvetica;html=1;strokeColor=#003366;shadow=1;fillColor=#D4E1F5;fontColor=#003366" vertex="1" parent="1">
          <mxGeometry x="80" y="300" width="180" height="100" as="geometry" />
        </mxCell>
        <mxCell id="33zuU1U3aMws3OUiL9Bi-35" value="&lt;p style=&quot;margin: 0px; margin-top: 4px; text-align: center; text-decoration: underline;&quot;&gt;&lt;b&gt;Hamsters&lt;/b&gt;&lt;/p&gt;" style="verticalAlign=top;align=left;overflow=fill;fontSize=12;fontFamily=Helvetica;html=1;strokeColor=#003366;shadow=1;fillColor=#D4E1F5;fontColor=#003366" vertex="1" parent="1">
          <mxGeometry x="110" y="320" width="180" height="96.72" as="geometry" />
        </mxCell>
        <mxCell id="33zuU1U3aMws3OUiL9Bi-36" value="&lt;p style=&quot;margin: 0px; margin-top: 4px; text-align: center; text-decoration: underline;&quot;&gt;&lt;b&gt;Horses&lt;/b&gt;&lt;/p&gt;&lt;hr&gt;&lt;p style=&quot;border-color: var(--border-color); margin: 0px 0px 0px 8px;&quot;&gt;&lt;br&gt;&lt;/p&gt;" style="verticalAlign=top;align=left;overflow=fill;fontSize=12;fontFamily=Helvetica;html=1;strokeColor=#003366;shadow=1;fillColor=#D4E1F5;fontColor=#003366" vertex="1" parent="1">
          <mxGeometry x="570" y="280" width="180" height="96.72" as="geometry" />
        </mxCell>
        <mxCell id="33zuU1U3aMws3OUiL9Bi-37" value="&lt;p style=&quot;margin: 0px; margin-top: 4px; text-align: center; text-decoration: underline;&quot;&gt;&lt;b&gt;Camels&lt;/b&gt;&lt;/p&gt;&lt;hr&gt;&lt;p style=&quot;border-color: var(--border-color); margin: 0px 0px 0px 8px;&quot;&gt;&lt;br&gt;&lt;/p&gt;" style="verticalAlign=top;align=left;overflow=fill;fontSize=12;fontFamily=Helvetica;html=1;strokeColor=#003366;shadow=1;fillColor=#D4E1F5;fontColor=#003366" vertex="1" parent="1">
          <mxGeometry x="590" y="300" width="180" height="96.72" as="geometry" />
        </mxCell>
        <mxCell id="33zuU1U3aMws3OUiL9Bi-38" value="&lt;p style=&quot;margin: 0px; margin-top: 4px; text-align: center; text-decoration: underline;&quot;&gt;&lt;b&gt;Donkeys&lt;/b&gt;&lt;/p&gt;&lt;hr&gt;&lt;p style=&quot;border-color: var(--border-color); margin: 0px 0px 0px 8px;&quot;&gt;&lt;br&gt;&lt;/p&gt;" style="verticalAlign=top;align=left;overflow=fill;fontSize=12;fontFamily=Helvetica;html=1;strokeColor=#003366;shadow=1;fillColor=#D4E1F5;fontColor=#003366" vertex="1" parent="1">
          <mxGeometry x="620" y="320" width="180" height="96.72" as="geometry" />
        </mxCell>
        <mxCell id="33zuU1U3aMws3OUiL9Bi-39" value="" style="endArrow=none;html=1;rounded=0;entryX=0.168;entryY=0.997;entryDx=0;entryDy=0;entryPerimeter=0;exitX=0.173;exitY=0.01;exitDx=0;exitDy=0;exitPerimeter=0;startArrow=classic;startFill=1;endFill=0;" edge="1" parent="1">
          <mxGeometry width="50" height="50" relative="1" as="geometry">
            <mxPoint x="121.14000000000004" y="281.2572" as="sourcePoint" />
            <mxPoint x="120.24000000000001" y="206.71984" as="targetPoint" />
            <Array as="points">
              <mxPoint x="120" y="220.29" />
            </Array>
          </mxGeometry>
        </mxCell>
        <mxCell id="33zuU1U3aMws3OUiL9Bi-40" value="" style="endArrow=none;html=1;rounded=0;startArrow=classic;startFill=1;endFill=0;entryX=0.554;entryY=1.004;entryDx=0;entryDy=0;entryPerimeter=0;" edge="1" parent="1">
          <mxGeometry width="50" height="50" relative="1" as="geometry">
            <mxPoint x="170.64" y="300" as="sourcePoint" />
            <mxPoint x="169.36" y="207.10688" as="targetPoint" />
            <Array as="points">
              <mxPoint x="169.64" y="259" />
            </Array>
          </mxGeometry>
        </mxCell>
        <mxCell id="33zuU1U3aMws3OUiL9Bi-41" value="" style="endArrow=none;html=1;rounded=0;entryX=0.887;entryY=0.998;entryDx=0;entryDy=0;entryPerimeter=0;exitX=0.611;exitY=0.01;exitDx=0;exitDy=0;exitPerimeter=0;startArrow=classic;startFill=1;endFill=0;" edge="1" parent="1" source="33zuU1U3aMws3OUiL9Bi-35" target="33zuU1U3aMws3OUiL9Bi-32">
          <mxGeometry width="50" height="50" relative="1" as="geometry">
            <mxPoint x="221" y="300" as="sourcePoint" />
            <mxPoint x="220" y="229" as="targetPoint" />
            <Array as="points">
              <mxPoint x="220" y="239" />
            </Array>
          </mxGeometry>
        </mxCell>
        <mxCell id="33zuU1U3aMws3OUiL9Bi-42" value="" style="endArrow=none;html=1;rounded=0;entryX=0.168;entryY=0.997;entryDx=0;entryDy=0;entryPerimeter=0;exitX=0.173;exitY=0.01;exitDx=0;exitDy=0;exitPerimeter=0;startArrow=classic;startFill=1;endFill=0;" edge="1" parent="1">
          <mxGeometry width="50" height="50" relative="1" as="geometry">
            <mxPoint x="641.1400000000001" y="281.2572" as="sourcePoint" />
            <mxPoint x="640.24" y="206.71984" as="targetPoint" />
            <Array as="points">
              <mxPoint x="640" y="220.29" />
            </Array>
          </mxGeometry>
        </mxCell>
        <mxCell id="33zuU1U3aMws3OUiL9Bi-43" value="" style="endArrow=none;html=1;rounded=0;startArrow=classic;startFill=1;endFill=0;entryX=0.554;entryY=1.004;entryDx=0;entryDy=0;entryPerimeter=0;" edge="1" parent="1">
          <mxGeometry width="50" height="50" relative="1" as="geometry">
            <mxPoint x="690.64" y="300" as="sourcePoint" />
            <mxPoint x="689.36" y="207.10688" as="targetPoint" />
            <Array as="points">
              <mxPoint x="689.64" y="259" />
            </Array>
          </mxGeometry>
        </mxCell>
        <mxCell id="33zuU1U3aMws3OUiL9Bi-44" value="" style="endArrow=none;html=1;rounded=0;entryX=0.887;entryY=0.998;entryDx=0;entryDy=0;entryPerimeter=0;exitX=0.611;exitY=0.01;exitDx=0;exitDy=0;exitPerimeter=0;startArrow=classic;startFill=1;endFill=0;" edge="1" parent="1">
          <mxGeometry width="50" height="50" relative="1" as="geometry">
            <mxPoint x="740" y="321" as="sourcePoint" />
            <mxPoint x="740" y="207" as="targetPoint" />
            <Array as="points">
              <mxPoint x="740" y="239" />
            </Array>
          </mxGeometry>
        </mxCell>
        <mxCell id="33zuU1U3aMws3OUiL9Bi-45" value="" style="endArrow=none;html=1;rounded=0;entryX=-0.001;entryY=0.42;entryDx=0;entryDy=0;entryPerimeter=0;startArrow=classic;startFill=1;" edge="1" parent="1" target="QkfnJcTWelkUbTLPT4NS-114">
          <mxGeometry width="50" height="50" relative="1" as="geometry">
            <mxPoint x="240" y="160" as="sourcePoint" />
            <mxPoint x="310" y="156.72" as="targetPoint" />
          </mxGeometry>
        </mxCell>
        <mxCell id="33zuU1U3aMws3OUiL9Bi-46" value="" style="endArrow=classic;html=1;rounded=0;exitX=0.996;exitY=0.425;exitDx=0;exitDy=0;exitPerimeter=0;entryX=-0.002;entryY=0.525;entryDx=0;entryDy=0;entryPerimeter=0;" edge="1" parent="1" source="QkfnJcTWelkUbTLPT4NS-114" target="19">
          <mxGeometry width="50" height="50" relative="1" as="geometry">
            <mxPoint x="510" y="170" as="sourcePoint" />
            <mxPoint x="568" y="158" as="targetPoint" />
          </mxGeometry>
        </mxCell>
      </root>
    </mxGraphModel>
  </diagram>
</mxfile>
